<?xml version="1.0" standalone="no"?><!DOCTYPE svg PUBLIC "-//W3C//DTD SVG 1.1//EN" "http://www.w3.org/Graphics/SVG/1.1/DTD/svg11.dtd"><svg t="1769479247449" class="icon" viewBox="0 0 1024 1024" version="1.1" xmlns="http://www.w3.org/2000/svg" p-id="1122" xmlns:xlink="http://www.w3.org/1999/xlink" width="200" height="200"><path d="M796.443 910.227H682.666V796.449h113.777v113.778zM455.109 796.445H341.332V682.668h113.777v113.777z m113.78-113.777v113.777H455.111V682.668h113.778z m227.554 113.777H682.666V682.668h113.777v113.777zM682.665 682.664H568.888V568.887h113.777v113.777z m113.778 0H682.666V568.887h113.777v113.777zM455.109 568.883H341.332V455.105h113.777v113.778z m227.556 0H568.888V455.105h113.777v113.778z m113.778 0H682.666V455.105h113.777v113.778z m-455.11-113.781H227.556V341.324h113.777v113.778z m568.888 0H682.666V341.324h227.555v113.778zM227.555 341.32H113.776V227.543h113.779V341.32z m227.554 0H341.332V227.559H227.556V113.781h227.553V341.32z m227.556 0H455.111V227.543h227.554V341.32z m227.556 0H796.443V227.559H682.666V113.781h227.555V341.32z" fill="#E9E0D6" p-id="1123"></path><path d="M227.555 796.449v113.778H113.777V796.449h113.778zM113.777 113.781v113.778H0V113.781h113.777z" fill="#6DB168" p-id="1124"></path><path d="M568.889 455.105v113.778H455.11V455.105h113.779z m0-113.781v113.778H455.11V341.324h113.779z" fill="#706762" p-id="1125"></path><path d="M455.109 341.324v113.778H341.332V341.324h113.777z m227.556 0v113.778H568.888V341.324h113.777z" fill="#222423" p-id="1126"></path><path d="M455.109 910.227H341.332V796.449h113.777v113.778z m227.556-113.778v113.778H455.111V796.449h227.554z m0-0.004H568.888V682.668h113.777v113.777z m-455.11-113.781H113.776V568.887h113.779v113.777z m227.554 0H341.332V568.887h113.777v113.777z m113.78 0H455.111V568.887h113.778v113.777z" fill="#CDBCAB" p-id="1127"></path><path d="M910.221 796.449v113.778H796.443V796.449h113.778zM341.333 341.32H227.556V227.543h113.777V341.32z m455.11 0H682.666V227.543h113.777V341.32z" fill="#FDF7E5" p-id="1128"></path><path d="M341.333 910.211h113.776v113.779H341.332V910.227H227.556V796.449h113.777v113.762z m0-113.766H227.556V682.668h113.777v113.777z m0-113.781H227.556V568.887h113.777v113.777zM227.555 568.883H113.776V455.105h113.779v113.778z m113.778 0H227.556V455.105h113.777v113.778zM227.555 455.102H113.776V341.324h113.779v113.778z m0-227.543H113.776V113.781h113.779v113.778z m0-113.782H113.776V0h113.779v113.777z" fill="#A76946" p-id="1129"></path></svg>