<?xml version="1.0" standalone="no"?><!DOCTYPE svg PUBLIC "-//W3C//DTD SVG 1.1//EN" "http://www.w3.org/Graphics/SVG/1.1/DTD/svg11.dtd"><svg t="1769499357098" class="icon" viewBox="0 0 1024 1024" version="1.1" xmlns="http://www.w3.org/2000/svg" p-id="11767" xmlns:xlink="http://www.w3.org/1999/xlink" width="200" height="200"><path d="M921.849375 466.588069h12.025946V531.37902h10.744111v65.000706h13.098027v66.259234h9.67203v64.9774c2.796732 0.186449 5.034117 0.349591 7.667707 0.53604v65.62997c2.959874 0.186449 5.570157 0.349591 8.739786 0.53604v64.627808l7.481257 0.396204v63.555728l5.873137 0.53604v78.611466H26.708788v-78.355099c2.167467-0.349591 3.705669-0.582652 5.779912-0.908938v-63.392585c2.656895-0.139837 4.77775-0.256367 7.457951-0.396203v-64.651114c3.146323-0.163143 5.756606-0.326285 8.739786-0.489428v-65.560052c2.610283-0.233061 4.847668-0.442816 7.667706-0.722489v-64.674421h9.648725v-66.072786h12.911578v-65.187154h10.930559v-65.000706h11.839498v-65.000705h13.121333v-65.187154h12.934884v-65.187155h31.346701c1.211917-11.326763 2.377222-22.187405 3.565833-33.420943h62.693401v39.736896h40.249631v56.330837h35.704941v58.498304h30.484375v59.78014h28.107154v58.498304h31.370007v35.122289H632.294422V511.102715h31.370007v-58.498304h28.316908v-59.78014h30.27462v-58.684753h35.89139V277.808681h40.039876v-39.876733h64.161686c0 6.199422-0.139837 12.468762 0.069918 18.714796 0.093224 2.656895-1.561509 5.919749 2.610283 7.691012 0.95555 0.396204 0.582652 3.985343 0.885632 6.665544h29.85511v64.954094h13.121333v65.187154h12.911578v65.373603zM314.42256 881.995949c-3.705669-16.617247 0.53604-32.535312-3.379385-48.896193-4.218404-17.666022-2.586977-36.800328-2.86665-55.305369-0.372898-23.329403 0.046612-46.635501-0.163142-69.964904-0.069918-7.6444-0.95555-15.2888-1.49159-22.979812h-29.155928v10.720805H226.488654v42.230648H196.23734v59.127569c-2.097549 0.349591-3.612445 0.582652-5.080729 0.83902v53.930309h27.081685v42.417097h50.900516v21.115325h58.218632v-33.164577h-12.911578z m278.531169 30.554293h39.59706v11.419988h59.337324c0.186449-2.889956 0.349591-5.500239 0.53604-8.483419h28.689806V880.038237l-7.993992-0.745796v-194.466076h-21.325079v25.869768H644.180531v46.705419h-31.53315v57.379612h-19.693652v97.722466z m-212.248629-33.654004c-0.559346-0.139837-1.118693-0.302979-1.654732-0.442816-0.885632 2.074243-2.423834 4.101873-2.540365 6.222728-0.349591 6.129504-0.11653 12.282313-0.116531 18.435123v20.742427h15.475249v-11.653049h39.014407v-97.745772h-19.880101v-56.936796h-25.473564c-2.02763 11.839497-0.163143 23.422628-2.074243 35.168901-2.656895 16.337574-0.069918 33.257801-2.400528 49.991578-1.654733 11.862804-0.326285 24.145117-0.326285 36.240982z m389.724561 14.682841h35.728247v-42.27726h26.708787V797.534652c-1.771263-0.186449-3.28616-0.326285-5.360402-0.559346v-59.500467H797.301591v-34.050208c-4.125179-1.444978-4.404852 0.605959-4.381546 3.379384 0.069918 11.210233 0.069918 22.39716 0 33.607392 0 1.538202-0.302979 3.146323-0.792408 4.614608-0.629265 1.864488-2.283998 3.612445-2.330609 5.43032-0.209755 13.167945-0.11653 26.33589-0.116531 39.527141l-1.701345-0.419509c-0.885632 2.074243-2.400528 4.101873-2.517059 6.222728-0.326285 6.479095-0.11653 13.004802-0.11653 19.507203v19.740265c-2.540365 0.233061-4.288322 0.372898-6.595626 0.582652v43.931994c-3.169629 0.186449-5.756606 0.349591-8.320276 0.489428v13.564148z" p-id="11768" fill="#2c2c2c"></path></svg>