<?xml version="1.0" standalone="no"?><!DOCTYPE svg PUBLIC "-//W3C//DTD SVG 1.1//EN" "http://www.w3.org/Graphics/SVG/1.1/DTD/svg11.dtd"><svg t="1769567396763" class="icon" viewBox="0 0 1024 1024" version="1.1" xmlns="http://www.w3.org/2000/svg" p-id="13747" xmlns:xlink="http://www.w3.org/1999/xlink" width="200" height="200"><path d="M572.8 32h-30.4C448 32 372.8 107.2 372.8 201.6v52.8h160v283.2h-153.6c19.2 72 84.8 126.4 163.2 126.4h30.4c92.8 0 168-75.2 168-169.6V201.6C740.8 107.2 665.6 32 572.8 32z" fill="#E1E1DF" p-id="13748"></path><path d="M833.6 406.4h-16v-46.4c0-25.6-20.8-46.4-46.4-46.4s-46.4 20.8-46.4 46.4v169.6c0 110.4-89.6 200-200 200H496c-110.4 0-200-89.6-200-200V361.6c0-25.6-20.8-46.4-46.4-46.4s-46.4 20.8-46.4 46.4v46.4h-16c-25.6 0-46.4 20.8-46.4 46.4v46.4c0 25.6 20.8 46.4 46.4 46.4h16c8 137.6 108.8 251.2 244.8 273.6v80H396.8c-25.6 1.6-43.2 24-41.6 49.6 3.2 24 24 43.2 48 41.6H620.8c25.6-1.6 43.2-24 41.6-49.6-3.2-24-24-43.2-48-41.6h-44.8v-80c136-22.4 238.4-136 244.8-273.6h16c25.6 0 46.4-20.8 46.4-46.4v-46.4c3.2-27.2-17.6-48-43.2-48z" fill="#4E8DF6" p-id="13749"></path><path d="M528 68.8h-32c-92.8 0-168 75.2-168 169.6v75.2H480c12.8 0 22.4 11.2 22.4 24v3.2c0 14.4-11.2 24-22.4 24H329.6v56H480c12.8 0 22.4 11.2 22.4 24v3.2c0 14.4-11.2 24-22.4 24H329.6v59.2c0 92.8 75.2 169.6 168 169.6H528c92.8 0 168-75.2 168-169.6V238.4C696 144 620.8 68.8 528 68.8z" fill="#4E8DF6" p-id="13750"></path><path d="M513.6 652.8c-9.6 0-16-6.4-16-16s6.4-16 16-16c64 0 115.2-51.2 115.2-115.2 0-9.6 6.4-16 16-16s16 6.4 16 16c-1.6 81.6-67.2 147.2-147.2 147.2z" fill="#2166CC" p-id="13751"></path></svg>